# AST/ASF file generated using VICON BodyLanguage
# -----------------------------------------------
:version 1.10
:name VICON
:units
  mass 1.0
  length 0.45
  angle deg
:documentation
   .ast/.asf automatically generated from VICON data using
   VICON BodyBuilder and BodyLanguage model FoxedUp or BRILLIANT.MOD
:root
   order TX TY TZ RX RY RZ
   axis XYZ
   position 0 0 0  
   orientation 0 0 0 
:bonedata
  begin
     id 1 
     name lhipjoint
     direction 0.602128 -0.715006 0.355257 
     length 2.21237 
     axis 0 0 0  XYZ
  end
  begin
     id 2 
     name lfemur
     direction 0.34202 -0.939693 0  
     length 6.71649  
     axis 0 0 20  XYZ
    dof rx ry rz
    limits (-160.0 20.0)
           (-70.0 70.0)
           (-60.0 70.0)
  end
  begin
     id 3 
     name ltibia
     direction 0.34202 -0.939693 0   
     length 6.97123   
     axis 0 0 20   XYZ
    dof rx
    limits (-10.0 170.0)
  end
  begin
     id 4 
     name lfoot
     direction 0.0655697 -0.180151 0.981451   
     length 1.80924   
     axis -90 7.62852e-016 20   XYZ
    dof rx rz
    limits (-45.0 90.0)
           (-70.0 20.0)
  end
  begin
     id 5 
     name ltoes
     direction 1.53545e-011 -4.21827e-011 1   
     length 0.916331   
     axis -90 7.62852e-016 20   XYZ
    dof rx
    limits (-90.0 20.0)
  end
  begin
     id 6 
     name rhipjoint
     direction -0.625414 -0.698792 0.347201   
     length 2.2637  
     axis 0 0 0  XYZ 
  end
  begin
     id 7 
     name rfemur
     direction -0.34202 -0.939693 0   
     length 7.07595   
     axis 0 0 -20   XYZ
    dof rx ry rz
    limits (-160.0 20.0)
           (-70.0 70.0)
           (-70.0 60.0)
  end
  begin
     id 8 
     name rtibia
     direction -0.34202 -0.939693 0   
     length 7.22924   
     axis 0 0 -20   XYZ
    dof rx
    limits (-10.0 170.0)
 end
 begin
     id 9 
     name rfoot
     direction -0.0766747 -0.210662 0.974547   
     length 1.98482  
     axis -90 -7.62852e-016 -20   XYZ
    dof rx rz
    limits (-45.0 90.0)
           (-20.0 70.0)
  end
  begin
     id 10 
     name rtoes
     direction -1.53532e-011 -4.21867e-011 1   
     length 0.999842   
     axis -90 -7.62852e-016 -20   XYZ
    dof rx
    limits (-90.0 20.0)
  end
  begin
     id 11 
     name lowerback
     direction -0.0224668 0.997354 -0.0691422   
     length 2.09945   
     axis 0 0 0   XYZ
    dof rx ry rz
    limits (-20.0 45.0)
           (-30.0 30.0)
           (-30.0 30.0)
  end
  begin
     id 12 
     name upperback
     direction 0.0134698 0.998451 -0.0539888   
     length 2.09758   
     axis 0 0 0   XYZ
    dof rx ry rz
    limits (-20.0 45.0)
           (-30.0 30.0)
           (-30.0 30.0)
  end
  begin
     id 13 
     name thorax
     direction 0.0241905 0.99948 -0.0213333   
     length 2.10428   
     axis 0 0 0   XYZ
    dof rx ry rz
    limits (-20.0 45.0)
           (-30.0 30.0)
           (-30.0 30.0)
  end
  begin
     id 14 
     name lowerneck
     direction -0.00866847 0.995978 0.0891737   
     length 1.3959   
     axis 0 0 0   XYZ
    dof rx ry rz
    limits (-20.0 45.0)
           (-30.0 30.0)
           (-30.0 30.0)
  end
  begin
     id 15 
     name upperneck
     direction 0.0680679 0.992203 0.104404   
     length 1.39452   
     axis 0 0 0   XYZ
    dof rx ry rz
    limits (-20.0 45.0)
           (-30.0 30.0)
           (-30.0 30.0)
  end
  begin
     id 16
     name head
     direction 0.0242216 0.999358 0.0264054  
     length 1.40433  
     axis 0 0 0   XYZ
    dof rx ry rz
    limits (-20.0 45.0)
           (-30.0 30.0)
           (-30.0 30.0)
  end
  begin
     id 17 
     name lclavicle
     direction 0.929368 0.362991 -0.0671771  
     length 3.04887  
     axis 0 0 0   XYZ
    dof ry rz
    limits (-20.0 10.0)
           (0.0 20.0)
  end
  begin
     id 18 
     name lhumerus
     direction 1 -4.48967e-011 -7.13741e-028   
     length 4.77195   
     axis -180 -30 -90   XYZ
    dof rx ry rz
    limits (-60.0 90.0)
           (-90.0 90.0)
           (-90.0 90.0)
  end
  begin
     id 19
     name lradius
     direction 1 -4.48977e-011 3.60404e-027   
     length 2.98444   
     axis -180 -30 -90   XYZ
    dof rx
    limits (-10.0 170.0)
  end
  begin
     id 20
     name lwrist
     direction 1 -4.48997e-011 7.54877e-027   
     length 1.49222   
     axis -7.18178e-015 90 90   XYZ
    dof ry
    limits (-180.0 0.0)
 end
  begin
     id 21 
     name lhand
     direction 1 -4.489e-011 1.51105e-026   
     length 0.992285   
     axis -9.63605e-015 90 90   XYZ
    dof rx rz
    limits (-90.0 90.0)
           (-45.0 45.0)
  end
  begin
     id 22 
     name lfingers
     direction 1 -4.48998e-011 3.01948e-026   
     length 0.800006   
     axis -1.92718e-014 90 90   XYZ
    dof rx
    limits (0.0 90.0)
  end
  begin
     id 23
     name lthumb
     direction 0.707107 -6.34881e-011 0.707107   
     length 1.14865   
     axis -90 45 -3.53137e-014   XYZ
    dof rx rz
    limits (-45.0 45.0)
           (-45.0 45.0)
  end
  begin
     id 24 
     name rclavicle
     direction -0.945672 0.324529 0.0196374   
     length 3.4236  
     axis 0 0 0   XYZ 
    dof ry rz
    limits (-10.0 20.0)
           (-20.0 0.0)
  end
  begin
     id 25 
     name rhumerus
     direction -1 -4.4896e-011 1.02757e-029  
     length 4.62052   
     axis -180 30 90   XYZ
    dof rx ry rz
    limits (-90.0 60.0)
           (-90.0 90.0)
           (-90.0 90.0)
  end
  begin
     id 26 
     name rradius
     direction -1 -4.48982e-011 3.85962e-027   
     length 2.95332   
     axis -180 30 90   XYZ
    dof rx
    limits (-10.0 170.0)
  end
  begin
     id 27 
     name rwrist
     direction -1 -4.48961e-011 7.55118e-027   
     length 1.47666   
     axis -7.18178e-015 -90 -90   XYZ
    dof ry
    limits (-180.0 0.0)
  end
  begin
     id 28
     name rhand
     direction -1 -4.48984e-011 1.50994e-026   
     length 0.990956   
     axis -9.63605e-015 -90 -90   XYZ
    dof rx rz
    limits (-90.0 90.0)
           (-45.0 45.0)
  end
  begin
     id 29
     name rfingers
     direction -1 -4.4892e-011 3.02158e-026   
     length 0.798934   
     axis -1.92718e-014 -90 -90   XYZ
    dof rx
    limits (0.0 90.0)
  end
  begin
     id 30
     name rthumb
     direction -0.707107 -6.34916e-011 0.707107   
     length 1.14711   
     axis -90 -45 3.53137e-014   XYZ
    dof rx rz
    limits (-45.0 45.0)
           (-45.0 45.0)
  end
:hierarchy
  begin
    root lhipjoint rhipjoint lowerback
    lhipjoint lfemur
    lfemur ltibia
    ltibia lfoot
    lfoot ltoes
    rhipjoint rfemur
    rfemur rtibia
    rtibia rfoot
    rfoot rtoes
    lowerback upperback
    upperback thorax
    thorax lowerneck lclavicle rclavicle
    lowerneck upperneck
    upperneck head
    lclavicle lhumerus
    lhumerus lradius
    lradius lwrist
    lwrist lhand lthumb
    lhand lfingers
    rclavicle rhumerus
    rhumerus rradius
    rradius rwrist
    rwrist rhand rthumb
    rhand rfingers
  end

#!OML:ASF H:\ManfredObstacles\Project 1\Capture day 1\Session 1\Male.ASF
:FULLY-SPECIFIED
:DEGREES
285
root 1.32552 8.32613 29.6773 -148.813 -46.3583 -181.56
lowerback 28.9115 2.0693 -8.39471
upperback 15.8293 -2.23428 -0.262597
thorax 2.2804 -2.7334 5.0163
lowerneck 6.03201 -1.47743 -6.28397
upperneck -25.1092 -1.94939 8.94433
head -8.59614 -1.81449 4.39282
rclavicle -2.70347e-014 3.97569e-016
rhumerus 40.4676 0.610855 -64.8227
rradius 36.5163
rwrist 22.8932
rhand -18.4708 -2.58708
rfingers 7.12502
rthumb 7.81591 -32.4226
lclavicle -2.70347e-014 3.97569e-016
lhumerus 48.0967 -12.7629 49.5445
lradius 43.6621
lwrist -16.2408
lhand -22.5795 4.90001
lfingers 7.12502
lthumb 3.84921 34.845
rfemur -111.221 -10.9609 26.9951
rtibia 132.446
rfoot -51.3053 13.9133
rtoes 11.8461
lfemur -114.397 9.91833 -22.5193
ltibia 132.591
lfoot -29.9636 -18.1488
ltoes 1.51483
286
root 1.31594 8.17213 29.6327 -148.641 -46.3146 -181.431
lowerback 28.9518 2.10257 -8.18786
upperback 16.2297 -2.23786 -0.208519
thorax 2.72378 -2.78798 4.93873
lowerneck 5.78826 -1.41137 -6.49994
upperneck -25.204 -1.89084 8.91433
head -8.58649 -1.76984 4.41521
rclavicle 4.77083e-015 -4.21423e-014
rhumerus 42.2396 -0.391803 -63.3038
rradius 36.6064
rwrist 22.0625
rhand -18.227 -2.47209
rfingers 7.12502
rthumb 8.05125 -32.2987
lclavicle 4.77083e-015 -4.21423e-014
lhumerus 49.729 -11.7488 48.7125
lradius 43.8726
lwrist -16.6779
lhand -23.3938 3.73683
lfingers 7.12502
lthumb 3.06278 33.6946
rfemur -112.405 -11.3006 27.7582
rtibia 133.906
rfoot -51.5953 14.5628
rtoes 12.3033
lfemur -115.935 11.1802 -22.9876
ltibia 134.075
lfoot -29.2267 -19.1394
ltoes 2.56524
287
root 1.30572 8.03149 29.5876 -148.398 -46.1635 -181.367
lowerback 28.993 2.22986 -7.91241
upperback 16.5127 -2.08636 -0.305905
thorax 2.99454 -2.72865 4.6227
lowerneck 6.03257 -1.49571 -6.013
upperneck -25.2662 -1.96359 8.76929
head -8.65612 -1.83435 4.29427
rclavicle 2.22639e-014 4.45278e-014
rhumerus 43.8494 -2.15408 -63.8686
rradius 35.995
rwrist 23.2016
rhand -18.5471 -2.46082
rfingers 7.12502
rthumb 7.74235 -32.2991
lclavicle 2.22639e-014 4.45278e-014
lhumerus 52.6707 -11.1679 47.7534
lradius 42.8108
lwrist -17.253
lhand -23.9132 3.29149
lfingers 7.12502
lthumb 2.5612 33.2559
rfemur -113.584 -11.5254 28.3591
rtibia 135.245
rfoot -51.7365 15.0933
rtoes 12.124
lfemur -117.409 12.4651 -23.6734
ltibia 135.401
lfoot -28.6988 -19.7113
ltoes 3.00208
288
root 1.30031 7.90436 29.5286 -148.198 -45.8504 -181.383
lowerback 29.0503 2.51302 -7.84576
upperback 16.901 -1.82516 -0.468064
thorax 3.38057 -2.64491 4.3202
lowerneck 5.84714 -1.73411 -5.36538
upperneck -24.7768 -2.18661 8.73885
head -8.44394 -1.97627 4.16023
rclavicle -1.74931e-014 -6.14245e-014
rhumerus 45.5536 -4.08433 -64.5975
rradius 35.2769
rwrist 24.2028
rhand -19.0761 -3.05722
rfingers 7.12502
rthumb 7.23174 -32.9136
lclavicle -1.74931e-014 -6.14245e-014
lhumerus 55.1381 -10.5442 46.7182
lradius 42.4799
lwrist -17.8467
lhand -24.234 3.65763
lfingers 7.12502
lthumb 2.25134 33.6255
rfemur -114.52 -11.5122 28.8825
rtibia 136.477
rfoot -51.9787 15.3455
rtoes 11.8294
lfemur -118.638 14.102 -24.573
ltibia 136.611
lfoot -28.6914 -20.3327
ltoes 1.72048
289
root 1.28391 7.78648 29.4734 -147.697 -45.5705 -181.76
lowerback 29.2732 2.39369 -8.17169
upperback 17.0356 -2.13247 -0.568622
thorax 3.49849 -2.84364 4.46692
lowerneck 6.20975 -1.47221 -6.15674
upperneck -24.842 -1.87466 8.96291
head -8.5446 -1.77407 4.36051
rclavicle -4.77083e-014 -5.02925e-014
rhumerus 47.4337 -4.59481 -64.8482
rradius 34.5934
rwrist 24.2792
rhand -19.4088 -3.43428
rfingers 7.12502
rthumb 6.91057 -33.3015
lclavicle -4.77083e-014 -5.02925e-014
lhumerus 55.9299 -9.25099 46.3154
lradius 42.5423
lwrist -18.4901
lhand -24.4201 4.09226
lfingers 7.12502
lthumb 2.07165 34.0619
rfemur -115.662 -12.2942 29.644
rtibia 137.683
rfoot -52.2115 15.9243
rtoes 11.1891
lfemur -119.76 15.2398 -25.5487
ltibia 137.749
lfoot -28.6584 -20.9018
ltoes 0.657645
290
root 1.25347 7.68248 29.4261 -146.9 -45.4531 -182.366
lowerback 29.3492 2.13663 -8.17905
upperback 17.2084 -2.51642 -0.730961
thorax 3.71541 -3.05173 4.37492
lowerneck 6.26441 -1.29442 -6.7661
upperneck -24.576 -1.64683 9.18352
head -8.47243 -1.61607 4.51165
rclavicle -3.18055e-015 -1.80894e-014
rhumerus 49.1552 -5.42206 -65.1253
rradius 34.0345
rwrist 23.9428
rhand -19.2113 -3.19705
rfingers 7.12502
rthumb 7.10115 -33.0579
lclavicle -3.18055e-015 -1.80894e-014
lhumerus 56.7346 -8.04123 46.0681
lradius 42.6912
lwrist -18.5717
lhand -24.3824 3.45247
lfingers 7.12502
lthumb 2.10804 33.4218
rfemur -116.99 -13.6531 30.4991
rtibia 138.818
rfoot -52.3289 16.8249
rtoes 10.4431
lfemur -120.851 15.7586 -26.4213
ltibia 138.856
lfoot -28.2335 -21.3849
ltoes 1.51435
291
root 1.2214 7.58846 29.3717 -146.101 -45.3583 -182.82
lowerback 29.2605 2.0255 -7.98492
upperback 17.2788 -2.61105 -0.880516
thorax 3.82799 -3.07792 4.11366
lowerneck 7.07842 -1.29768 -6.60712
upperneck -24.7063 -1.64009 9.11442
head -8.67294 -1.61521 4.4818
rclavicle 1.90833e-014 8.74653e-015
rhumerus 50.1314 -6.59752 -64.7058
rradius 33.6908
rwrist 23.039
rhand -18.8733 -3.38089
rfingers 7.12502
rthumb 7.42749 -33.2305
lclavicle 1.90833e-014 8.74653e-015
lhumerus 58.1364 -7.57429 46.3971
lradius 42.3775
lwrist -18.7133
lhand -24.2061 2.49303
lfingers 7.12502
lthumb 2.27834 32.4606
rfemur -118.275 -14.6626 31.309
rtibia 139.853
rfoot -52.265 17.8237
rtoes 10.7655
lfemur -122.078 16.5007 -27.3172
ltibia 139.898
lfoot -27.7587 -21.944
ltoes 2.19713
292
root 1.1892 7.51687 29.3105 -145.292 -45.3297 -183.14
lowerback 29.012 1.97329 -7.84403
upperback 17.4083 -2.62818 -0.855296
thorax 4.08752 -3.08968 4.04651
lowerneck 7.67405 -1.34154 -6.31554
upperneck -24.9258 -1.71206 8.868
head -8.86239 -1.65227 4.37448
rclavicle -7.63333e-014 5.9039e-014
rhumerus 51.3664 -7.87614 -64.6584
rradius 33.131
rwrist 22.8423
rhand -18.8061 -4.0068
rfingers 7.12502
rthumb 7.49231 -33.8541
lclavicle -7.63333e-014 5.9039e-014
lhumerus 59.7251 -7.01712 46.6738
lradius 41.8637
lwrist -18.9193
lhand -24.3592 2.00968
lfingers 7.12502
lthumb 2.13043 31.9788
rfemur -119.623 -16.0162 32.8345
rtibia 140.709
rfoot -52.214 18.9538
rtoes 11.3084
lfemur -123.201 17.3162 -28.1444
ltibia 140.725
lfoot -27.5062 -22.4982
ltoes 1.91441
293
root 1.15322 7.46276 29.2423 -144.66 -45.302 -183.363
lowerback 28.8729 1.80513 -7.60727
upperback 17.5917 -2.80628 -0.926144
thorax 4.37086 -3.17661 3.85701
lowerneck 7.856 -1.22587 -6.55915
upperneck -24.7408 -1.5365 9.03124
head -8.8425 -1.55122 4.45222
rclavicle -1.20861e-013 -1.37161e-014
rhumerus 52.8245 -8.92108 -65.1407
rradius 32.4772
rwrist 23.0937
rhand -18.8413 -4.50137
rfingers 7.12502
rthumb 7.45837 -34.3499
lclavicle -1.20861e-013 -1.37161e-014
lhumerus 59.8696 -6.09125 45.959
lradius 42.6289
lwrist -18.7823
lhand -24.8449 1.68534
lfingers 7.12502
lthumb 1.66138 31.6586
rfemur -120.429 -16.9175 33.9322
rtibia 141.437
rfoot -52.4167 19.5671
rtoes 11.5923
lfemur -124.102 17.0257 -28.353
ltibia 141.073
lfoot -27.5198 -20.5031
ltoes -3.21846
294
root 1.11867 7.41753 29.1719 -144.026 -45.0243 -183.556
lowerback 28.9087 1.93538 -7.60119
upperback 17.6582 -2.66119 -0.891843
thorax 4.41862 -3.11261 3.85549
lowerneck 7.99841 -1.23445 -6.69244
upperneck -24.4293 -1.52357 9.16124
head -8.75898 -1.52866 4.50591
rclavicle -1.33583e-013 -1.17681e-013
rhumerus 53.7515 -10.1615 -64.7315
rradius 32.0544
rwrist 22.7854
rhand -18.5538 -4.52753
rfingers 7.12502
rthumb 7.73585 -34.366
lclavicle -1.33583e-013 -1.17681e-013
lhumerus 60.7763 -5.82604 46.2829
lradius 42.447
lwrist -19.835
lhand -25.6105 1.35374
lfingers 7.12502
lthumb 0.921944 31.3315
rfemur -121.206 -17.2777 34.7065
rtibia 142.065
rfoot -52.4625 19.8176
rtoes 11.7986
lfemur -124.948 18.1314 -29.3229
ltibia 141.728
lfoot -27.0082 -21.6574
ltoes -3.49657
295
root 1.08005 7.38613 29.0994 -143.387 -44.7738 -183.648
lowerback 28.8987 2.01485 -7.49921
upperback 17.73 -2.55154 -0.862034
thorax 4.49075 -3.05723 3.801
lowerneck 8.41391 -1.28047 -6.62106
upperneck -24.642 -1.56056 9.23654
head -8.90669 -1.56628 4.54229
rclavicle 7.31528e-014 3.17062e-014
rhumerus 54.7421 -11.3989 -64.6465
rradius 31.5878
rwrist 22.9039
rhand -18.3062 -4.42533
rfingers 7.12502
rthumb 7.97482 -34.2549
lclavicle 7.31528e-014 3.17062e-014
lhumerus 61.6076 -5.52685 46.5486
lradius 42.5512
lwrist -19.6565
lhand -25.4291 1.12855
lfingers 7.12502
lthumb 1.09713 31.1055
rfemur -121.83 -17.3919 35.3679
rtibia 142.597
rfoot -52.529 19.7337
rtoes 11.4659
lfemur -125.761 19.6513 -30.3437
ltibia 142.378
lfoot -26.1246 -23.5238
ltoes -1.04548
296
root 1.02832 7.36983 29.0232 -142.663 -44.7086 -183.729
lowerback 28.8408 1.76826 -7.13381
upperback 17.8163 -2.78736 -0.950448
thorax 4.61805 -3.14214 3.54391
lowerneck 8.81189 -1.18058 -6.63719
upperneck -25.0856 -1.41117 9.31788
head -9.14901 -1.51999 4.592
rclavicle -8.74653e-014 -5.22804e-014
rhumerus 56.1188 -12.3073 -65.9053
rradius 30.9671
rwrist 24.2781
rhand -18.5652 -4.47576
rfingers 7.12502
rthumb 7.72485 -34.3147
lclavicle -8.74653e-014 -5.22804e-014
lhumerus 61.9401 -4.89244 46.3892
lradius 42.7728
lwrist -19.3982
lhand -25.6835 1.22792
lfingers 7.12502
lthumb 0.851463 31.206
rfemur -122.389 -17.9681 36.314
rtibia 143.071
rfoot -52.8271 19.7999
rtoes 11.0341
lfemur -126.377 20.2438 -30.7789
ltibia 142.839
lfoot -25.6777 -23.7438
ltoes -0.309823
297
root 0.967516 7.35683 28.951 -141.595 -44.5398 -183.994
lowerback 28.5963 1.5157 -6.81323
upperback 17.8802 -3.00975 -1.05536
thorax 4.7992 -3.21685 3.28262
lowerneck 8.94758 -1.14878 -6.56984
upperneck -25.2713 -1.37439 9.23104
head -9.24565 -1.50647 4.55898
rclavicle 4.77083e-014 -1.81888e-014
rhumerus 57.465 -13.1722 -67.2305
rradius 30.3693
rwrist 25.6234
rhand -18.7431 -4.31326
rfingers 7.12502
rthumb 7.55311 -34.1584
lclavicle 4.77083e-014 -1.81888e-014
lhumerus 65.6702 -2.85002 40.8759
lradius 40.9718
lwrist -13.4211
lhand -25.7267 1.93546
lfingers 7.12502
lthumb 0.809741 31.9137
rfemur -123.316 -18.5478 37.0484
rtibia 143.495
rfoot -52.6933 20.6371
rtoes 11.9889
lfemur -127.11 20.1017 -30.9627
ltibia 143.243
lfoot -25.3399 -23.351
ltoes -0.313798
298
root 0.909272 7.35919 28.8557 -140.844 -44.1685 -184.374
lowerback 28.823 1.57145 -6.9414
upperback 18.0204 -3.0399 -1.05656
thorax 4.88081 -3.26221 3.36052
lowerneck 8.94308 -1.14651 -6.69948
upperneck -25.2268 -1.36959 9.30546
head -9.22691 -1.49773 4.60482
rclavicle 3.65764e-014 4.48259e-014
rhumerus 58.8581 -13.985 -68.069
rradius 29.6569
rwrist 26.5377
rhand -18.6505 -3.9784
rfingers 7.12502
rthumb 7.64252 -33.8203
lclavicle 3.65764e-014 4.48259e-014
lhumerus 68.6471 -0.375111 34.496
lradius 39.8994
lwrist -6.66936
lhand -26.4364 2.52848
lfingers 7.12502
lthumb 0.124232 32.5082
rfemur -123.651 -19.4656 37.9021
rtibia 143.876
rfoot -52.6916 21.7817
rtoes 13.1555
lfemur -127.255 21.1146 -31.7024
ltibia 143.606
lfoot -24.3778 -24.3454
ltoes 3.87856
299
root 0.847588 7.3705 28.7657 -139.903 -43.7844 -184.632
lowerback 28.8059 1.60753 -6.97044
upperback 18.0926 -3.01683 -1.02159
thorax 4.97826 -3.26117 3.40431
lowerneck 8.95898 -1.16612 -6.75856
upperneck -25.1096 -1.39432 9.32244
head -9.18552 -1.49934 4.61719
rclavicle 1.09729e-013 8.82604e-014
rhumerus 60.1623 -14.8539 -68.7853
rradius 28.9743
rwrist 27.5095
rhand -18.6676 -3.46635
rfingers 7.12502
rthumb 7.62602 -33.3089
lclavicle 1.09729e-013 8.82604e-014
lhumerus 69.0787 0.673481 32.8477
lradius 40.2527
lwrist -5.35217
lhand -28.5449 2.26084
lfingers 7.12502
lthumb -1.91213 32.232
rfemur -124.251 -20.0325 38.7465
rtibia 144.183
rfoot -52.6214 22.1306
rtoes 12.7316
lfemur -127.518 20.3853 -31.5903
ltibia 143.656
lfoot -24.7159 -21.7586
ltoes -0.67245
